<svg xmlns="http://www.w3.org/2000/svg" xmlns:xlink="http://www.w3.org/1999/xlink" width="72" height="72" viewBox="0 0 72 72">
  <defs>
    <style>
      .cls-1 {
        fill: #fff;
        stroke: #707070;
      }

      .cls-2 {
        clip-path: url(#clip-path);
      }

      .cls-3 {
        fill: #198cff;
      }

      .cls-4 {
        fill: #fec601;
      }

      .cls-5 {
        fill: #0f8cff;
      }
    </style>
    <clipPath id="clip-path">
      <rect id="Rectangle_3388" data-name="Rectangle 3388" class="cls-1" width="72" height="72" transform="translate(-6133 -7312)"/>
    </clipPath>
  </defs>
  <g id="Mask_Group_541" data-name="Mask Group 541" class="cls-2" transform="translate(6133 7312)">
    <path id="Path_14688" data-name="Path 14688" class="cls-3" d="M410.094,61.894V75.68h11.213V61.894Z" transform="translate(-6500.211 -7328.641)"/>
    <path id="Path_14687" data-name="Path 14687" class="cls-4" d="M379.783,56.018,380.5,58h1.348l1.358-.975.736-3.546.874-1.851.767,5.4V75.5h10.658V59.239h1.442l1.523-2.214,1.808-1.86h2.331l-.581-5.4-3.558-2.715-1-3.015-2.48-1.945-3.354-1.064h-4.31l-3.247,1.831-2.3,2.569-1.148,3.6Z" transform="translate(-6500.211 -7328.641)"/>
    <path id="Path_14686" data-name="Path 14686" class="cls-5" d="M406,47.458l3.512-4.768,4.019-1.665h4.022l4.021,1.665,1.637,2.444,2.413,3.891,1.128,5.411v2.589l-2.128,1.195V60.8l-1.413,1.825h-13.7l-1.133-3.6-1.169-2-2.647-2.182-1.932-1.517,1.932-2.638Z" transform="translate(-6500.211 -7328.641)"/>
    <circle id="Ellipse_710" data-name="Ellipse 710" class="cls-3" cx="4" cy="4" r="4" transform="translate(-6089 -7297.615)"/>
    <circle id="Ellipse_711" data-name="Ellipse 711" class="cls-3" cx="4" cy="4" r="4" transform="translate(-6113 -7297.615)"/>
    <circle id="Ellipse_712" data-name="Ellipse 712" class="cls-3" cx="4" cy="4" r="4" transform="translate(-6101 -7282.615)"/>
    <path id="Path_14685" data-name="Path 14685" class="cls-3" d="M376.281,54.2a2.6,2.6,0,0,0,2.494-1.961l.549-2.16V70.8a1,1,0,0,0,1,1h10.9a1,1,0,0,0,1-1V62.658a.992.992,0,0,0,.5.149h1.6l.9,8.091a1,1,0,0,0,1,.888h3.991a1,1,0,0,0,1-.888l.9-8.091h1.612a.992.992,0,0,0,.5-.149V70.79a1,1,0,0,0,1,1h10.924a1,1,0,0,0,1-1V58.383h2.713a1,1,0,0,0,.966-1.028,1.035,1.035,0,0,0-.023-.183l-.729-2.993a2.993,2.993,0,0,0,2.611-3.332c-.012-.1-.03-.2-.052-.3l-1.706-7.417a10.435,10.435,0,0,0-8.2-7.982,5.487,5.487,0,1,0-4.086,0,10.414,10.414,0,0,0-7.716,6.46,4.416,4.416,0,0,0-5.363,0,10.417,10.417,0,0,0-7.726-6.44,5.488,5.488,0,1,0-4.085,0,10.437,10.437,0,0,0-8.2,7.982l-1.806,7.882a2.6,2.6,0,0,0,2.544,3.172Zm26.438,6.614h-1.5a1,1,0,0,0-1,.888l-.9,8.091h-2.2l-.9-8.086a1,1,0,0,0-1-.888h-1.5V55.585a4.49,4.49,0,0,1,8.979,0ZM406.21,69.8V58.383h3.337V69.8H406.23Zm8.884,0h-3.532V58.383h3.576ZM407.158,30.08a3.492,3.492,0,1,1,3.492,3.492h0A3.492,3.492,0,0,1,407.158,30.08Zm3.492,6.883a8.481,8.481,0,0,1,8.32,6.61l1.691,7.417a1,1,0,0,1-.754,1.193,1.016,1.016,0,0,1-.218.024h-.11l-2.494-10.121a1,1,0,0,0-1.936.5h0l3.407,13.823H404.713v-.823a6.434,6.434,0,0,0-.5-2.46l2-10.615a1,1,0,0,0-1.953-.412l-.008.042-1.621,8.69A6.485,6.485,0,0,0,399.81,49.3a4.426,4.426,0,0,0,2.587-5.7l-.013-.033a8.481,8.481,0,0,1,8.291-6.61Zm-12.421,5.742a2.454,2.454,0,1,1-2.455,2.454h0A2.454,2.454,0,0,1,398.229,42.706ZM382.266,30.085a2.959,2.959,0,1,0,.025,0Zm-6.58,21.39,1.8-7.9a8.505,8.505,0,0,1,16.586,0,4.424,4.424,0,0,0,2.538,5.719l.031.012a6.483,6.483,0,0,0-4.424,3.85V42.327a1,1,0,1,0-2,0V69.8H386.78V56.388a1,1,0,1,0-1.995,0V69.8h-3.442V42.327a.9.9,0,0,0,0-.115,1,1,0,0,0-1.95-.363L376.9,51.754a.606.606,0,0,1-1.177-.284Z" transform="translate(-6495.184 -7323.797)"/>
  </g>
</svg>
